<?xml version="1.0" encoding="utf-8"?>
<!-- Generator: Adobe Illustrator 12.0.0, SVG Export Plug-In . SVG Version: 6.00 Build 51448)  -->
<!DOCTYPE svg PUBLIC "-//W3C//DTD SVG 1.1 Basic//EN" "http://www.w3.org/Graphics/SVG/1.1/DTD/svg11-basic.dtd" [
	<!ENTITY ns_svg "http://www.w3.org/2000/svg">
	<!ENTITY ns_xlink "http://www.w3.org/1999/xlink">
]>
<svg  version="1.1" baseProfile="basic" xmlns="&ns_svg;" xmlns:xlink="&ns_xlink;" width="114.44" height="124.025"
	 viewBox="0 0 114.44 124.025" overflow="visible" enable-background="new 0 0 114.44 124.025" xml:space="preserve">
<g id="Ebene_1" display="none">
	<g display="inline">
		<g>
			<path fill="#43A1FF" d="M48.1,42.206c-5.006,0.507-18.092,2.654-27.103,11.551C10.27,64.361,3.484,81.81,3.2,82.547
				C3.065,82.899,3,83.263,3,83.624c0,0.964,0.466,1.897,1.298,2.471c1.141,0.786,2.673,0.688,3.705-0.236
				c6.346-5.688,15.294-10.957,17.987-9.424c0.414,0.235,1.307,0.744,1.307,2.417c0,1.284-0.53,3.258-2.2,6.317
				c-0.728-0.823-1.797-1.276-2.898-1.005C15.327,85.858,3.182,93.43,6.406,109.96c0.231,1.187,1.152,2.118,2.335,2.363
				c16.485,3.418,24.204-8.635,25.982-15.485c0.065-0.251,0.097-0.504,0.097-0.754c0-0.77-0.378-1.444-0.906-2
				c4.396-2.298,7.422-2.446,8.98-0.413c1.423,1.855-3.581,10.37-10.101,17.192c-0.958,1.003-1.105,2.532-0.354,3.698
				c0.752,1.166,2.205,1.665,3.514,1.206c0.753-0.264,18.563-6.584,29.312-17.204c8.976-8.867,11.604-21.575,12.306-26.433
				c32.31-11.771,33.82-58.405,33.868-60.422c0.001-0.024,0.001-0.048,0.001-0.072c0-1.405-0.978-2.626-2.356-2.929
				C108.629,8.607,61.391,7.723,48.1,42.206z M79.628,34.989c0-0.011,0-0.022,0-0.034c0.008-1.379,0.554-2.672,1.536-3.643
				c0.995-0.983,2.316-1.52,3.723-1.511c2.883,0.018,5.215,2.358,5.198,5.217c-0.019,2.859-2.377,5.173-5.259,5.158
				C81.953,40.157,79.628,37.833,79.628,34.989z"/>
		</g>
		<g>
			<path fill="#F6F6F6" d="M108.076,5.636c-2.386,0-14.966,0.232-28.39,4.814c-7.878,2.689-14.691,6.4-20.248,11.028
				C53.46,26.458,48.936,32.49,45.954,39.449c-6.259,0.865-18.384,3.602-27.065,12.173C7.706,62.677,0.693,80.709,0.4,81.472
				c-0.995,2.586-0.087,5.516,2.194,7.09c1.03,0.711,2.22,1.061,3.405,1.061c1.439,0,2.873-0.516,4.006-1.529
				c0.027-0.024,2.746-2.449,6.202-4.808c4.496-3.066,7.017-3.838,8.059-4.03c-0.05,0.337-0.16,0.824-0.396,1.487
				c-0.435,1.219-1.056,2.353-1.427,3.029c-0.297,0.542-0.531,0.97-0.729,1.549c-0.251,0.734-0.353,1.498-0.314,2.251
				c0.932-0.351,1.517-0.495,1.517-0.495c-0.505,0.489-0.968,0.97-1.392,1.442c0.17,0.792,0.501,1.552,0.984,2.229
				c1.827-2.042,4.325-2.656,4.324-2.657c-2.349,2.556-1.021,4.502-1.021,4.502s0.899,0.797,2.193,0.797
				c0.807,0,1.769-0.312,2.76-1.321c0,0-0.653,2.517-2.745,4.321c0.668,0.553,1.436,0.944,2.247,1.166
				c0.505-0.447,1.023-0.936,1.552-1.47c0,0-0.167,0.643-0.568,1.651c0.197,0.02,0.396,0.029,0.594,0.029
				c0.648,0,1.301-0.105,1.933-0.32c0.524-0.178,0.915-0.387,1.329-0.607c3.017-1.611,4.285-1.611,4.701-1.611
				c0.055,0,0.105,0.001,0.15,0.003c-0.293,1.058-1.218,3.348-4.138,7.316c-2.541,3.454-5.17,6.218-5.196,6.245
				c-1.916,2.007-2.207,5.065-0.704,7.396c1.129,1.751,3.049,2.749,5.042,2.749c0.662,0,1.331-0.109,1.982-0.338
				c0.779-0.273,19.204-6.812,30.428-17.9c8.621-8.517,11.771-20.285,12.871-26.354c7.039-2.9,13.162-7.62,18.239-14.067
				c4.573-5.809,8.283-13.014,11.026-21.414c4.567-13.99,4.917-26.555,4.929-27.083c0.038-1.598-0.567-3.144-1.673-4.297
				c-1.107-1.153-2.633-1.818-4.23-1.845C108.535,5.639,108.376,5.636,108.076,5.636L108.076,5.636z M6,83.625
				c0,0,6.714-17.462,17.104-27.733c10.399-10.267,27.129-10.839,27.129-10.839c10.953-32.576,53.476-33.417,57.843-33.417
				c0.238,0,0.364,0.002,0.364,0.002l0,0l0,0c0,0-1.15,48.204-33.627,58.292c0,0-1.265,16.233-11.657,26.501
				c-10.393,10.267-28.195,16.506-28.195,16.506l0,0l0,0c0,0,11.108-11.605,11.132-18.403c0.004-1.022-0.244-1.938-0.818-2.687
				c-1.508-1.967-3.489-2.62-5.467-2.62c-3.796,0-7.578,2.408-7.963,2.539l0,0l0,0c0.141-0.908,0.226-1.648,0.226-2.246
				c0-1.795-0.763-2.319-3.062-2.319c-0.472,0-1.009,0.022-1.617,0.06l0,0l0,0c0.168-0.493,2.906-4.652,2.912-8.446
				c0.003-1.937-0.705-3.777-2.83-4.987c-0.777-0.44-1.676-0.635-2.658-0.635C17.622,73.192,6,83.625,6,83.625L6,83.625L6,83.625
				L6,83.625z M84.904,26.801c-0.017,0-0.034,0-0.051,0c-4.522,0.001-8.2,3.63-8.227,8.135c0,0.018,0,0.036,0,0.053
				c0,4.499,3.651,8.157,8.18,8.187c0.016,0.001,0.03,0.001,0.048,0.001c4.519,0,8.201-3.633,8.229-8.141c0-0.018,0-0.035,0-0.053
				C93.083,30.487,89.433,26.829,84.904,26.801L84.904,26.801z M84.894,37.177c-0.016,0-0.031,0-0.047,0
				c-1.232-0.008-2.228-0.996-2.22-2.202c0.008-1.199,1.006-2.173,2.228-2.173h0.013c1.229,0.007,2.223,0.992,2.217,2.196
				C87.076,36.187,86.098,37.156,84.894,37.177L84.894,37.177z M85.181,37.188c-0.066-0.004-0.134-0.007-0.2-0.009
				C85.037,37.18,85.105,37.183,85.181,37.188L85.181,37.188z M22.918,81.077c-0.476,0-0.958,0.057-1.437,0.175
				c-0.581,0.144-5.812,1.519-10.596,5.657c-2.991,2.588-5.184,5.697-6.519,9.245c-1.622,4.308-1.926,9.146-0.905,14.382
				c0.463,2.372,2.304,4.235,4.671,4.727c2.118,0.438,4.197,0.662,6.181,0.662c4.222,0,8.111-0.989,11.56-2.94
				c2.739-1.55,5.156-3.684,7.183-6.342c3.275-4.297,4.448-8.576,4.571-9.05c0.681-2.625-0.483-5.38-2.84-6.722
				c-0.185-0.105-0.373-0.199-0.564-0.283c-1.296,0.571-2.2,1.118-2.378,1.179c0.099-0.64,0.17-1.195,0.204-1.677
				c-0.076-0.003-0.152-0.005-0.228-0.005c-1.563,0-3.107,0.609-4.265,1.777c-0.405,0.409-0.794,0.778-1.167,1.111
				c0.388,0.205,0.949,0.416,1.615,0.416c0.807,0,1.769-0.312,2.76-1.321c0,0-1.587,6.114-7.732,6.114
				c-0.675,0-1.406-0.074-2.195-0.238c-1.56-7.994,5.997-9.852,5.995-9.854c-2.349,2.556-1.021,4.502-1.021,4.502
				s0.023,0.021,0.068,0.056c0.355-0.4,0.755-0.82,1.208-1.257c1.168-1.13,1.795-2.646,1.828-4.189
				c-0.449,0.002-0.956,0.023-1.524,0.059c0.07-0.205,0.586-1.047,1.165-2.233c-0.105-0.291-0.235-0.576-0.388-0.854
				C27.094,82.231,25.063,81.077,22.918,81.077L22.918,81.077z M8.871,104.656c0.006-14.117,14.047-17.579,14.047-17.579l0,0l0,0
				c-4.636,4.482-5.702,8.321-5.7,10.908c0.002,2.212,0.785,3.508,0.785,3.508s0.956,0.55,2.693,0.55
				c2.387,0,6.248-1.036,11.124-5.957l0,0l0,0c0,0-3.592,13.839-17.506,13.839c-1.527,0-3.179-0.167-4.963-0.537
				C9.02,107.691,8.87,106.117,8.871,104.656L8.871,104.656z M20.415,96.018C20.415,96.018,20.415,96.018,20.415,96.018
				C20.415,96.018,20.415,96.018,20.415,96.018L20.415,96.018z M26.828,82.091c-0.511,0-1.027,0.065-1.539,0.201
				c-0.794,0.211-3.58,1.071-6.109,3.317c-1.68,1.492-2.909,3.27-3.665,5.255c3.633-2.858,7.402-3.788,7.402-3.788
				c-8.599,8.314-4.915,14.416-4.915,14.416s0.956,0.55,2.693,0.55c2.387,0,6.248-1.036,11.124-5.957c0,0-0.941,3.626-3.726,7.165
				c2.292-0.894,4.302-2.415,5.883-4.488c1.805-2.369,2.48-4.736,2.597-5.188c0.334-1.287,0.224-2.606-0.253-3.774
				c-2.359,0.722-4.212,1.876-4.475,1.966c0.563-3.634,0.229-4.565-2.836-4.565c-0.472,0-1.009,0.022-1.617,0.06
				c0.11-0.321,1.313-2.203,2.138-4.526C28.698,82.315,27.773,82.091,26.828,82.091L26.828,82.091z M20.626,95.854
				c0.003-6.236,6.209-7.762,6.208-7.764l0,0l0,0c-1.101,1.198-1.395,2.262-1.395,3.055c-0.001,0.897,0.374,1.447,0.374,1.447
				s0.899,0.797,2.193,0.797c0.807,0,1.769-0.312,2.76-1.321l0,0l0,0c0,0-1.587,6.114-7.732,6.114c-0.675,0-1.406-0.074-2.195-0.238
				C20.692,97.195,20.626,96.5,20.626,95.854L20.626,95.854z"/>
		</g>
	</g>
	<path id="path3542_7_" display="inline" fill="#FF960B" d="M18.003,101.493c0,0-3.685-6.102,4.915-14.416
		c0,0-17.096,4.215-13.567,22.31c18.045,3.741,22.469-13.302,22.469-13.302C23.397,104.584,18.003,101.493,18.003,101.493z
		 M20.838,97.944c7.973,1.656,9.928-5.876,9.928-5.876c-2.578,2.627-4.953,0.523-4.953,0.523s-1.329-1.945,1.021-4.502
		C26.835,88.091,19.279,89.95,20.838,97.944z"/>
	<path id="path3542_4_" display="inline" fill="#43A1FF" d="M108.44,11.638c0,0-46.655-0.937-58.207,33.415
		c0,0-16.73,0.572-27.129,10.839C12.715,66.163,6,83.625,6,83.625s15.012-13.476,21.474-9.798c6.288,3.58,0.172,12.689-0.082,13.433
		c4.559-0.282,5.103,0.313,4.453,4.507c0.586-0.2,9.027-5.664,13.43,0.08c4.392,5.727-10.314,21.091-10.314,21.091
		s17.802-6.239,28.196-16.507C73.55,86.163,74.813,69.929,74.813,69.929C107.291,59.841,108.44,11.638,108.44,11.638z
		 M76.628,34.936c0.026-4.521,3.731-8.162,8.276-8.135c4.547,0.028,8.207,3.714,8.181,8.234c-0.029,4.524-3.736,8.167-8.278,8.14
		C80.261,43.146,76.599,39.458,76.628,34.936z"/>
</g>
<g id="Ebene_2">
	<g>
		<path id="path3542_6_" fill="#43A1FF" d="M59.495,5.5c0,0-30.778,29.564-16.035,59.249c0,0-10.449,11.19-10.533,24.555
			c-0.077,13.361,6.873,28.994,6.873,28.994s0.994-18.421,7.551-20.222c6.381-1.75,8.318,8.096,8.635,8.74
			c2.765-3.132,3.5-3.1,5.793,0.034c0.25-0.51,2.176-9.501,8.736-8.632c6.543,0.862,6.97,20.309,6.97,20.309
			s7.478-15.549,7.559-28.908c0.081-13.361-9.601-24.678-9.601-24.678C89.923,37.416,59.495,5.5,59.495,5.5z M53.987,41.139
			c-2.906-2.941-2.865-7.692,0.092-10.613c2.957-2.922,7.709-2.906,10.615,0.035c2.907,2.944,2.865,7.697-0.089,10.618
			C61.646,44.1,56.894,44.082,53.987,41.139z"/>
		<path fill="#F6F6F6" d="M55.685,1.534c-1.098,1.054-21.778,21.275-21.778,46.132c0,5.228,0.993,10.665,3.197,16.168
			c-3.479,4.579-9.605,14.214-9.676,25.435c0,0.084,0,0.167,0,0.251c0,14.319,7.045,30.334,7.347,31.013
			c1.032,2.321,3.52,3.632,6.019,3.173c2.499-0.458,4.358-2.57,4.499-5.106c0.341-6.138,1.973-12.922,3.5-14.922
			c0.39,0.523,1.014,1.651,1.727,4.088l0.533,1.479c0.659,1.828,2.114,2.893,4.023,3.257c1.377,0.263,2.707-0.181,3.831-0.983
			c1.061,0.72,2.297,1.138,3.563,0.938c1.962-0.311,3.559-1.319,4.251-3.182l0.463-1.247c0.778-2.563,1.561-3.708,2.101-4.136
			c1.312,2.232,2.568,8.869,2.705,14.762c0.06,2.542,1.854,4.714,4.339,5.25s5.015-0.699,6.117-2.99
			c0.327-0.681,8.014-16.829,8.102-31.259c0-0.066,0.001-0.133,0.001-0.199c0-11.064-5.579-20.65-8.767-25.229
			c2.144-5.147,3.107-10.342,3.107-15.425c0-24.288-20.33-45.96-21.41-47.093c-1.009-1.058-2.397-1.671-3.859-1.703
			S56.74,0.521,55.685,1.534z M38.427,89.529c0-0.065,0-0.13,0-0.193c0.069-10.979,8.974-20.747,9.063-20.844
			c0.962-1.043,1.466-2.391,1.466-3.753c0-0.829-0.187-1.663-0.571-2.437c-2.403-4.839-3.379-9.722-3.379-14.462
			c0-14.375,8.959-27.408,14.341-33.948c5.37,6.931,14.484,20.768,14.484,34.948c0,4.556-0.942,9.143-3.256,13.541
			c-0.423,0.803-0.629,1.68-0.629,2.552c0,1.281,0.445,2.555,1.307,3.573c0.084,0.098,8.291,9.928,8.291,20.945
			c0,0.045-0.001,0.09-0.001,0.135c-0.017,2.77-0.409,5.675-0.989,8.509c-1.71-2.833-4.063-4.899-7.32-5.329
			c-2.531-0.335-8.005-0.134-11.979,6.223c-0.178-0.005-0.345,0.015-0.517,0.022c-4.195-7.482-10.142-6.979-12.842-6.238
			c-2.824,0.775-4.955,2.775-6.579,5.358C38.783,95.269,38.427,92.332,38.427,89.529z"/>
		<path fill="#F6F6F6" d="M50.213,26.614c-2.479,2.449-3.858,5.716-3.879,9.197c0,0.027,0,0.054,0,0.082
			c0,3.436,1.326,6.669,3.74,9.112c5.032,5.094,13.284,5.134,18.395,0.088c5.108-5.052,5.169-13.303,0.138-18.397
			c-2.434-2.463-5.682-3.83-9.148-3.851C55.977,22.824,52.694,24.163,50.213,26.614z M57.9,37.274L57.9,37.274
			c-0.497-0.502-0.568-1.09-0.566-1.396c0.002-0.314,0.083-0.919,0.61-1.439c0.527-0.521,1.135-0.596,1.449-0.594
			c0.306,0.002,0.893,0.08,1.389,0.582c0.771,0.78,0.751,2.055-0.044,2.842C59.945,38.05,58.671,38.055,57.9,37.274z M50.075,45.005
			C50.075,45.005,50.074,45.004,50.075,45.005C50.075,45.004,50.075,45.005,50.075,45.005z"/>
	</g>
	<path id="path3542_5_" fill="#43A1FF" d="M59.495,5.5c0,0-30.778,29.564-16.035,59.249c0,0-10.449,11.19-10.533,24.555
		c-0.077,13.361,6.873,28.994,6.873,28.994s0.994-18.421,7.551-20.222c6.381-1.75,8.318,8.096,8.635,8.74
		c2.765-3.132,3.5-3.1,5.793,0.034c0.25-0.51,2.176-9.501,8.736-8.632c6.543,0.862,6.97,20.309,6.97,20.309
		s7.478-15.549,7.559-28.908c0.081-13.361-9.601-24.678-9.601-24.678C89.923,37.416,59.495,5.5,59.495,5.5z M53.987,41.139
		c-2.906-2.941-2.865-7.692,0.092-10.613c2.957-2.922,7.709-2.906,10.615,0.035c2.907,2.944,2.865,7.697-0.089,10.618
		C61.646,44.1,56.894,44.082,53.987,41.139z"/>
</g>
</svg>
