<?xml version="1.0" encoding="UTF-8" standalone="no"?>
<!-- Created with Inkscape (http://www.inkscape.org/) -->

<svg
   xmlns:dc="http://purl.org/dc/elements/1.1/"
   xmlns:cc="http://creativecommons.org/ns#"
   xmlns:rdf="http://www.w3.org/1999/02/22-rdf-syntax-ns#"
   xmlns:svg="http://www.w3.org/2000/svg"
   xmlns="http://www.w3.org/2000/svg"
   xmlns:sodipodi="http://sodipodi.sourceforge.net/DTD/sodipodi-0.dtd"
   xmlns:inkscape="http://www.inkscape.org/namespaces/inkscape"
   width="16"
   height="16"
   viewBox="0 0 16 16"
   id="svg3342"
   version="1.1"
   inkscape:version="0.91 r13725"
   sodipodi:docname="Lock_16x.svg">
  <defs
     id="defs3344" />
  <sodipodi:namedview
     id="base"
     pagecolor="#ffffff"
     bordercolor="#666666"
     borderopacity="1.0"
     inkscape:pageopacity="0.0"
     inkscape:pageshadow="2"
     inkscape:zoom="19.068654"
     inkscape:cx="4.0870203"
     inkscape:cy="7.3406145"
     inkscape:document-units="px"
     inkscape:current-layer="layer1"
     showgrid="true"
     units="px"
     inkscape:snap-page="true"
     inkscape:snap-to-guides="true"
     inkscape:window-width="1920"
     inkscape:window-height="1143"
     inkscape:window-x="0"
     inkscape:window-y="0"
     inkscape:window-maximized="1">
    <inkscape:grid
       type="xygrid"
       id="grid3354" />
  </sodipodi:namedview>
  <metadata
     id="metadata3347">
    <rdf:RDF>
      <cc:Work
         rdf:about="">
        <dc:format>image/svg+xml</dc:format>
        <dc:type
           rdf:resource="http://purl.org/dc/dcmitype/StillImage" />
        <dc:title />
      </cc:Work>
    </rdf:RDF>
  </metadata>
  <g
     inkscape:label="Ebene 1"
     inkscape:groupmode="layer"
     id="layer1"
     transform="translate(0,-1036.3622)">
    <path
       style="fill:#434343;fill-opacity:1;stroke:#f6f6f6;stroke-width:2;stroke-linecap:butt;stroke-linejoin:miter;stroke-miterlimit:4;stroke-dasharray:none;stroke-dashoffset:0;stroke-opacity:1"
       d="M 11 2 C 9.8919904 2 9 2.892 9 4 L 9 6 L 5 6 C 3.892058 6 3 6.892 3 8 L 3 13 C 3 14.1079 3.892058 15 5 15 L 11 15 C 12.107942 15 13 14.1079 13 13 L 13 8 C 13 6.892 12.107942 6 11 6 L 10 6 L 10 4 C 10 3.446 10.44599 3 11 3 L 13 3 C 13.554009 3 14 3.446 14 4 L 14 6 L 15 6 L 15 4 C 15 2.892 14.108009 2 13 2 L 11 2 z "
       transform="translate(0,1036.3622)"
       id="rect3358-6" />
    <rect
       style="fill:#434343;fill-opacity:1;stroke:none;stroke-width:1;stroke-linecap:butt;stroke-linejoin:miter;stroke-miterlimit:4;stroke-dasharray:none;stroke-dashoffset:0;stroke-opacity:1"
       id="rect3358"
       width="10"
       height="8.9999828"
       x="3"
       y="1042.3622"
       ry="1.9998953" />
    <rect
       style="fill:#f0eff1;fill-opacity:1;stroke:none;stroke-width:1;stroke-linecap:butt;stroke-linejoin:miter;stroke-miterlimit:4;stroke-dasharray:none;stroke-dashoffset:0;stroke-opacity:1"
       id="rect3358-3"
       width="8"
       height="6.9999828"
       x="4"
       y="1043.3622"
       ry="0.99989533" />
    <rect
       style="fill:#424242;fill-opacity:1;stroke:none;stroke-width:1;stroke-linecap:butt;stroke-linejoin:miter;stroke-miterlimit:4;stroke-dasharray:none;stroke-dashoffset:0;stroke-opacity:1;color:#000000;clip-rule:nonzero;display:inline;overflow:visible;visibility:visible;opacity:1;isolation:auto;mix-blend-mode:normal;color-interpolation:sRGB;color-interpolation-filters:linearRGB;solid-color:#000000;solid-opacity:1;fill-rule:nonzero;filter-blend-mode:normal;filter-gaussianBlur-deviation:0;color-rendering:auto;image-rendering:auto;shape-rendering:auto;text-rendering:auto;enable-background:accumulate"
       id="rect4175"
       width="6"
       height="1.0000174"
       x="5"
       y="1044.3622"
       ry="0.5" />
    <rect
       style="fill:#424242;fill-opacity:1;stroke:none;stroke-width:1;stroke-linecap:butt;stroke-linejoin:miter;stroke-miterlimit:4;stroke-dasharray:none;stroke-dashoffset:0;stroke-opacity:1"
       id="rect4175-6"
       width="6"
       height="1.0000174"
       x="5"
       y="1048.3622"
       ry="0.5" />
    <path
       style="fill:#424242;fill-opacity:1;stroke:none;stroke-width:1;stroke-linecap:butt;stroke-linejoin:miter;stroke-miterlimit:4;stroke-dasharray:none;stroke-dashoffset:0;stroke-opacity:1"
       d="m 11,1038.3622 c -1.1080096,0 -2,0.892 -2,2 l 0,2 1,0 0,-2 c 0,-0.554 0.44599,-1 1,-1 l 2,0 c 0.554009,0 1,0.446 1,1 l 0,2 1,0 0,-2 c 0,-1.108 -0.891991,-2 -2,-2 z"
       id="rect4218"
       inkscape:connector-curvature="0"
       sodipodi:nodetypes="ssccssssccsss" />
    <rect
       style="fill:#424242;fill-opacity:1;stroke:none;stroke-width:1;stroke-linecap:butt;stroke-linejoin:miter;stroke-miterlimit:4;stroke-dasharray:none;stroke-dashoffset:0;stroke-opacity:1"
       id="rect4175-5"
       width="6"
       height="1.0000174"
       x="5"
       y="1046.3622"
       ry="0.5" />
  </g>
</svg>
