<svg xmlns="http://www.w3.org/2000/svg" width="16" height="16">
  <path d="M15 5.52V13c0 .97-.701 2-2 2H7c-.97 0-2-.701-2-2V9H3v-.879l-.621.621L.257 6.621.878 6H0V3h.878l-.621-.621L2.379.257 3 .878V0h3v.878l.621-.622 2.121 2.122L8.121 3h3.948L15 5.52z" fill="#F6F6F6"/>
  <path d="M14 6.136V13s-.035 1-1.035 1h-6S6 14 6 13V8.145l.598.598L7 8.34V13h6V7h-2V5H9V4h2.625L14 6.136z" fill="#424242"/>
  <path d="M13 7v6H7V8.363l1.742-1.742L8.121 6H9V5h2v2h2z" fill="#F0EFF1"/>
  <path d="M8 4H5.707l1.621-1.621-.707-.708L5 3.292V1H4v2.292L2.379 1.671l-.708.708L3.292 4H1v1h2.292L1.671 6.621l.708.707L4 5.707V8h1V5.707l1.621 1.621.707-.707L5.707 5H8V4zM5 5H4V4h1v1z" fill="#C27D1A"/>
</svg>
