<svg version="1.1" xmlns="http://www.w3.org/2000/svg" x="0" y="0" width="16" height="16" xml:space="preserve">
  <path d="M8 16c-1.654 0-3-1.346-3-3s1.346-3 3-3 3 1.346 3 3-1.346 3-3 3zm7-6V4.586l-4-4V3.03A6.481 6.481 0 0 0 7.5 2C4.158 2 1.305 4.596 1.004 7.91L.905 9h3.643l.113-.872a2.857 2.857 0 0 1 1.13-1.923L9.586 10H15zM6.106 6A2.852 2.852 0 0 1 7.5 5.637 3.23 3.23 0 0 1 8.966 6h-2.86z" fill="#F6F6F6"/>
  <path d="M8 11a2 2 0 1 1-.001 4.001A2 2 0 0 1 8 11z" fill="#424242"/>
  <path d="M3.669 8H2c.254-2.799 2.637-5 5.5-5 1.86 0 3.504.931 4.5 2.348V3l2 2v4h-4L8 7h3v-.002l.238.002C10.652 5.611 9.102 4.637 7.5 4.637A3.863 3.863 0 0 0 3.669 8z" fill="#00539C"/>
</svg>
